<svg version="1.1" xmlns="http://www.w3.org/2000/svg" viewBox="0 0 196 115" width="196" height="115" class="excalidraw-svg">
  <!-- svg-source:excalidraw -->
  
  <defs>
    <style class="style-fonts">
      
    </style>
    
  </defs>
  <rect x="0" y="0" width="196" height="115" fill="#ffffff"/><g transform="translate(14 36) rotate(0 3.5 33)" stroke="none"><path fill="#1e1e1e" d="M 1.28,-0.28 Q 1.28,-0.28 2.47,2.16 3.67,4.61 4.26,8.99 4.85,13.37 5.36,16.57 5.88,19.77 6.12,22.40 6.35,25.02 6.74,28.36 7.12,31.70 7.58,35.12 8.03,38.55 8.23,40.94 8.43,43.33 8.80,47.18 9.17,51.02 9.33,53.57 9.49,56.12 9.56,58.09 9.63,60.05 8.97,62.37 8.30,64.69 8.27,64.90 8.24,65.11 8.15,65.30 8.05,65.49 7.90,65.64 7.75,65.79 7.56,65.89 7.37,65.98 7.16,66.01 6.95,66.04 6.74,66.00 6.54,65.96 6.35,65.86 6.17,65.75 6.02,65.59 5.88,65.44 5.80,65.24 5.71,65.04 5.70,64.83 5.68,64.62 5.73,64.42 5.78,64.21 5.89,64.03 6.01,63.85 6.17,63.72 6.34,63.58 6.54,63.51 6.74,63.44 6.95,63.43 7.16,63.43 7.37,63.49 7.57,63.55 7.74,63.67 7.92,63.80 8.04,63.97 8.16,64.14 8.23,64.35 8.29,64.55 8.28,64.76 8.28,64.97 8.20,65.17 8.13,65.37 8.00,65.54 7.87,65.70 7.69,65.82 7.51,65.93 7.30,65.98 7.10,66.04 6.88,66.02 6.67,66.00 6.48,65.92 6.28,65.83 6.12,65.69 5.96,65.55 5.86,65.37 5.76,65.18 5.71,64.97 5.67,64.76 5.67,64.76 5.67,64.76 4.92,62.50 4.16,60.24 4.10,58.35 4.03,56.46 3.88,54.00 3.73,51.54 3.36,47.66 3.00,43.78 2.82,41.51 2.63,39.25 2.19,35.78 1.74,32.31 1.37,28.90 0.99,25.48 0.79,23.05 0.59,20.61 0.08,17.32 -0.42,14.02 -0.89,9.88 -1.37,5.73 -1.32,3.00 -1.28,0.28 -1.29,0.12 -1.31,-0.03 -1.29,-0.18 -1.26,-0.34 -1.20,-0.49 -1.14,-0.63 -1.05,-0.76 -0.96,-0.89 -0.84,-0.99 -0.72,-1.09 -0.57,-1.16 -0.43,-1.23 -0.28,-1.27 -0.12,-1.30 0.03,-1.30 0.18,-1.29 0.34,-1.25 0.49,-1.21 0.63,-1.14 0.77,-1.06 0.88,-0.95 1.00,-0.84 1.08,-0.71 1.17,-0.58 1.22,-0.43 1.28,-0.28 1.28,-0.28 L 1.28,-0.28 Z"/></g><g transform="translate(11 47) rotate(0 18.5 8)" stroke="none"><path fill="#1e1e1e" d="M -1.29,0.21 Q -1.29,0.21 -1.89,-1.45 -2.49,-3.13 -2.67,-4.83 -2.86,-6.53 -2.07,-9.59 -1.28,-12.65 -0.08,-15.64 1.10,-18.64 2.18,-21.06 3.25,-23.48 4.94,-26.10 6.63,-28.71 8.99,-30.89 11.35,-33.06 15.15,-34.14 18.95,-35.23 23.01,-33.82 27.07,-32.41 29.78,-29.83 32.50,-27.24 34.58,-23.37 36.66,-19.49 37.84,-15.41 39.01,-11.33 38.94,-5.31 38.88,0.71 37.95,7.30 37.03,13.89 34.88,20.59 32.72,27.28 30.63,32.16 28.54,37.04 26.44,40.65 24.35,44.27 22.79,46.20 21.23,48.13 17.53,49.22 13.83,50.32 13.64,50.22 13.45,50.13 13.30,49.98 13.14,49.83 13.05,49.64 12.95,49.45 12.92,49.24 12.89,49.03 12.93,48.82 12.97,48.61 13.07,48.43 13.18,48.24 13.33,48.10 13.49,47.96 13.69,47.87 13.88,47.79 14.09,47.77 14.30,47.75 14.51,47.80 14.72,47.85 14.90,47.96 15.08,48.07 15.21,48.24 15.34,48.40 15.42,48.60 15.49,48.80 15.50,49.01 15.51,49.23 15.45,49.43 15.39,49.63 15.26,49.81 15.14,49.98 14.97,50.11 14.80,50.23 14.60,50.29 14.39,50.36 14.18,50.35 13.97,50.35 13.77,50.28 13.57,50.21 13.40,50.07 13.23,49.94 13.12,49.76 13.00,49.59 12.95,49.38 12.90,49.17 12.91,48.96 12.93,48.75 13.01,48.55 13.09,48.36 13.24,48.20 13.38,48.04 13.56,47.93 13.74,47.83 13.95,47.79 14.16,47.75 14.37,47.77 14.58,47.80 14.58,47.80 14.58,47.80 15.79,46.23 17.00,44.66 18.31,43.08 19.61,41.49 21.56,38.18 23.51,34.87 25.51,30.23 27.52,25.58 29.59,19.35 31.66,13.11 32.56,6.85 33.47,0.59 33.64,-4.67 33.82,-9.95 32.85,-13.50 31.89,-17.06 30.30,-20.32 28.70,-23.58 26.83,-25.62 24.95,-27.66 22.26,-29.02 19.57,-30.37 16.97,-29.84 14.36,-29.31 12.48,-27.68 10.60,-26.05 9.06,-23.78 7.52,-21.51 6.42,-19.19 5.32,-16.87 4.10,-14.13 2.89,-11.39 2.05,-9.06 1.22,-6.74 1.28,-5.25 1.34,-3.76 1.31,-1.99 1.29,-0.21 1.30,-0.05 1.30,0.10 1.27,0.25 1.24,0.41 1.18,0.55 1.11,0.69 1.01,0.82 0.91,0.94 0.78,1.03 0.66,1.13 0.51,1.19 0.37,1.25 0.21,1.28 0.05,1.31 -0.09,1.29 -0.25,1.28 -0.40,1.23 -0.55,1.18 -0.69,1.10 -0.82,1.02 -0.93,0.90 -1.04,0.79 -1.12,0.65 -1.20,0.51 -1.25,0.36 -1.29,0.21 -1.29,0.21 L -1.29,0.21 Z"/></g><g transform="translate(52 72) rotate(0 11.5 5)" stroke="none"><path fill="#1e1e1e" d="M 1.05,0.78 Q 1.05,0.78 0.57,2.17 0.09,3.56 -0.01,4.82 -0.13,6.09 -0.20,8.06 -0.28,10.02 -0.35,11.38 -0.42,12.73 0.59,14.21 1.61,15.69 2.48,16.59 3.35,17.50 4.30,18.01 5.24,18.52 6.63,18.39 8.01,18.25 9.49,17.51 10.96,16.76 13.22,14.87 15.47,12.98 17.51,10.30 19.54,7.62 20.74,5.88 21.93,4.14 22.46,1.29 22.98,-1.55 22.54,-3.02 22.09,-4.49 21.45,-5.54 20.81,-6.59 19.00,-7.56 17.20,-8.53 14.22,-8.29 11.23,-8.06 9.89,-7.41 8.56,-6.77 6.93,-5.50 5.30,-4.24 4.02,-2.77 2.75,-1.30 1.22,0.65 -0.29,2.60 -0.42,2.77 -0.55,2.94 -0.73,3.05 -0.90,3.17 -1.11,3.23 -1.31,3.28 -1.53,3.27 -1.74,3.26 -1.94,3.18 -2.13,3.10 -2.29,2.96 -2.46,2.82 -2.56,2.64 -2.67,2.46 -2.72,2.25 -2.76,2.04 -2.74,1.83 -2.71,1.62 -2.62,1.43 -2.53,1.24 -2.39,1.08 -2.24,0.93 -2.05,0.83 -1.86,0.73 -1.65,0.70 -1.45,0.67 -1.24,0.70 -1.03,0.74 -0.84,0.84 -0.65,0.94 -0.51,1.09 -0.36,1.25 -0.27,1.44 -0.18,1.63 -0.16,1.84 -0.14,2.06 -0.19,2.26 -0.23,2.47 -0.34,2.65 -0.45,2.83 -0.62,2.97 -0.78,3.11 -0.98,3.18 -1.17,3.26 -1.39,3.27 -1.60,3.28 -1.80,3.23 -2.01,3.17 -2.18,3.05 -2.36,2.93 -2.49,2.76 -2.61,2.59 -2.68,2.39 -2.75,2.19 -2.75,1.97 -2.75,1.76 -2.68,1.56 -2.61,1.36 -2.61,1.36 -2.61,1.36 -1.66,-1.29 -0.72,-3.95 0.72,-6.03 2.16,-8.12 4.24,-9.81 6.32,-11.49 8.28,-12.39 10.25,-13.28 13.29,-13.75 16.33,-14.22 17.83,-13.87 19.33,-13.51 21.24,-12.59 23.16,-11.68 24.32,-10.49 25.48,-9.30 26.40,-7.58 27.32,-5.86 27.83,-3.51 28.35,-1.16 28.00,1.76 27.65,4.70 27.02,5.94 26.39,7.19 25.10,9.06 23.81,10.93 21.36,14.05 18.91,17.17 16.01,19.45 13.12,21.72 10.60,22.66 8.08,23.60 5.48,23.38 2.87,23.15 1.20,22.10 -0.46,21.04 -1.69,19.62 -2.92,18.19 -4.15,15.54 -5.38,12.88 -5.31,11.27 -5.25,9.66 -5.01,7.36 -4.78,5.06 -4.16,3.04 -3.54,1.03 -2.29,0.12 -1.05,-0.78 -0.94,-0.90 -0.83,-1.01 -0.69,-1.10 -0.56,-1.18 -0.41,-1.23 -0.26,-1.28 -0.10,-1.29 0.05,-1.31 0.20,-1.28 0.36,-1.26 0.50,-1.19 0.65,-1.13 0.78,-1.04 0.90,-0.94 1.00,-0.82 1.10,-0.70 1.17,-0.55 1.24,-0.41 1.27,-0.26 1.30,-0.10 1.30,0.05 1.29,0.20 1.25,0.36 1.20,0.51 1.12,0.65 1.05,0.78 1.05,0.78 L 1.05,0.78 Z"/></g><g transform="translate(96 70) rotate(0 -3 11)" stroke="none"><path fill="#1e1e1e" d="M -1.28,-0.25 Q -1.28,-0.25 -1.60,-1.79 -1.93,-3.32 -2.13,-4.78 -2.34,-6.23 -3.46,-6.57 -4.58,-6.90 -6.07,-6.34 -7.56,-5.77 -8.56,-4.98 -9.55,-4.19 -10.66,-2.62 -11.77,-1.05 -12.80,0.97 -13.84,3.00 -14.61,4.50 -15.38,6.01 -15.91,7.85 -16.43,9.70 -16.64,11.78 -16.86,13.86 -16.68,16.01 -16.51,18.16 -15.67,19.92 -14.84,21.67 -13.98,22.97 -13.12,24.26 -11.78,25.50 -10.44,26.75 -8.72,27.42 -7.00,28.09 -5.25,28.39 -3.49,28.69 -1.63,28.83 0.22,28.98 1.29,28.79 2.36,28.60 3.34,27.85 4.32,27.10 5.70,25.98 7.08,24.86 8.01,24.12 8.93,23.39 10.58,21.44 12.23,19.49 12.36,19.33 12.49,19.16 12.67,19.04 12.85,18.92 13.05,18.87 13.26,18.81 13.47,18.83 13.68,18.84 13.88,18.92 14.07,19.00 14.23,19.14 14.40,19.28 14.50,19.46 14.61,19.64 14.66,19.85 14.70,20.06 14.68,20.27 14.65,20.48 14.56,20.67 14.47,20.86 14.32,21.02 14.17,21.17 13.99,21.27 13.80,21.37 13.59,21.40 13.38,21.43 13.17,21.40 12.96,21.36 12.77,21.26 12.59,21.16 12.44,21.00 12.30,20.85 12.21,20.65 12.12,20.46 12.10,20.25 12.08,20.04 12.12,19.83 12.17,19.62 12.28,19.44 12.39,19.26 12.56,19.12 12.72,18.99 12.92,18.91 13.12,18.83 13.33,18.82 13.54,18.81 13.74,18.87 13.95,18.93 14.12,19.05 14.30,19.17 14.43,19.34 14.55,19.51 14.62,19.71 14.69,19.92 14.68,20.13 14.68,20.34 14.61,20.54 14.54,20.74 14.54,20.74 14.54,20.74 13.44,23.89 12.34,27.04 11.43,27.96 10.51,28.88 8.91,30.30 7.32,31.71 5.36,32.87 3.39,34.03 1.59,34.27 -0.19,34.52 -2.36,34.33 -4.54,34.14 -6.87,33.65 -9.20,33.17 -11.69,31.99 -14.18,30.81 -15.96,29.05 -17.74,27.29 -18.83,25.58 -19.92,23.87 -20.96,21.27 -22.00,18.66 -22.18,15.96 -22.36,13.26 -22.05,10.70 -21.73,8.14 -21.02,5.82 -20.31,3.50 -19.52,1.97 -18.74,0.45 -17.47,-1.94 -16.20,-4.34 -14.59,-6.42 -12.98,-8.50 -11.63,-9.53 -10.28,-10.56 -8.20,-11.48 -6.11,-12.39 -4.35,-12.17 -2.59,-11.94 -1.20,-11.26 0.17,-10.59 1.49,-8.09 2.82,-5.60 2.95,-4.01 3.08,-2.42 2.18,-1.08 1.28,0.25 1.23,0.40 1.18,0.55 1.10,0.69 1.02,0.82 0.90,0.93 0.79,1.04 0.65,1.12 0.51,1.20 0.36,1.25 0.21,1.29 0.05,1.30 -0.10,1.30 -0.25,1.27 -0.41,1.24 -0.55,1.18 -0.69,1.11 -0.82,1.01 -0.94,0.91 -1.03,0.78 -1.13,0.66 -1.19,0.51 -1.26,0.37 -1.28,0.21 -1.31,0.05 -1.29,-0.09 -1.28,-0.25 -1.28,-0.25 L -1.28,-0.25 Z"/></g><g transform="translate(108 12) rotate(0 3 44)" stroke="none"><path fill="#1e1e1e" d="M 1.31,0 Q 1.31,0 1.92,2.87 2.54,5.75 2.58,9.84 2.62,13.94 2.93,18.76 3.24,23.59 3.39,28.88 3.53,34.18 3.60,37.86 3.66,41.53 3.97,46.77 4.29,52.01 4.42,57.47 4.56,62.93 4.62,66.39 4.67,69.85 5.26,74.02 5.84,78.20 6.37,80.83 6.89,83.45 7.11,84.95 7.34,86.44 7.60,87.52 7.86,88.60 7.86,88.88 7.86,89.17 7.79,89.45 7.71,89.72 7.58,89.97 7.44,90.23 7.25,90.44 7.06,90.65 6.82,90.81 6.58,90.97 6.32,91.06 6.05,91.16 5.76,91.19 5.48,91.22 5.20,91.19 4.91,91.15 4.65,91.04 4.38,90.94 4.15,90.77 3.92,90.61 3.73,90.39 3.54,90.18 3.41,89.92 3.28,89.67 3.22,89.39 3.15,89.11 3.88,87.32 4.60,85.53 4.66,85.32 4.72,85.12 4.85,84.95 4.97,84.77 5.14,84.65 5.31,84.52 5.51,84.46 5.72,84.39 5.93,84.40 6.14,84.40 6.34,84.47 6.54,84.54 6.71,84.67 6.88,84.81 6.99,84.98 7.11,85.16 7.16,85.37 7.21,85.57 7.20,85.78 7.18,86.00 7.10,86.19 7.02,86.39 6.88,86.55 6.74,86.71 6.56,86.81 6.37,86.92 6.16,86.96 5.96,87.00 5.74,86.98 5.53,86.95 5.34,86.86 5.15,86.77 5.00,86.62 4.85,86.47 4.75,86.28 4.66,86.09 4.62,85.88 4.59,85.67 4.63,85.46 4.67,85.25 4.77,85.07 4.88,84.88 5.03,84.74 5.19,84.59 5.38,84.51 5.58,84.42 5.79,84.40 6.00,84.38 6.21,84.43 6.41,84.48 6.59,84.59 6.77,84.71 6.91,84.87 7.04,85.03 7.12,85.23 7.19,85.43 7.20,85.64 7.21,85.86 7.21,85.86 7.21,85.86 7.54,87.23 7.86,88.60 7.86,88.88 7.86,89.17 7.79,89.45 7.71,89.72 7.58,89.97 7.44,90.23 7.25,90.44 7.06,90.65 6.82,90.81 6.58,90.97 6.32,91.06 6.05,91.16 5.76,91.19 5.48,91.22 5.20,91.19 4.91,91.15 4.65,91.04 4.38,90.94 4.15,90.77 3.92,90.61 3.73,90.39 3.54,90.18 3.41,89.92 3.28,89.67 3.22,89.39 3.15,89.11 3.30,89.71 3.44,90.31 2.70,88.80 1.97,87.30 1.73,85.92 1.50,84.53 0.94,81.74 0.38,78.95 -0.23,74.45 -0.84,69.94 -0.89,66.50 -0.95,63.06 -1.08,57.69 -1.20,52.33 -1.51,46.97 -1.81,41.61 -1.85,37.96 -1.90,34.30 -1.99,29.10 -2.09,23.90 -2.36,18.92 -2.62,13.94 -2.58,9.84 -2.54,5.75 -1.92,2.87 -1.31,0 -1.29,-0.15 -1.27,-0.31 -1.21,-0.46 -1.16,-0.61 -1.07,-0.74 -0.98,-0.87 -0.86,-0.97 -0.74,-1.08 -0.60,-1.15 -0.46,-1.22 -0.31,-1.26 -0.15,-1.30 0.00,-1.30 0.15,-1.30 0.31,-1.26 0.46,-1.22 0.60,-1.15 0.74,-1.08 0.86,-0.97 0.98,-0.87 1.07,-0.74 1.16,-0.61 1.21,-0.46 1.27,-0.31 1.29,-0.15 1.31,0.00 1.31,0.00 L 1.31,0 Z"/></g><g transform="translate(112 81) rotate(0 9.5 -15)" stroke="none"><path fill="#1e1e1e" d="M -1.31,0 Q -1.31,0 -1.81,-1.49 -2.31,-2.98 -1.12,-5.81 0.06,-8.64 1.42,-11.14 2.77,-13.64 5.16,-16.84 7.54,-20.05 9.99,-23.08 12.45,-26.12 16.39,-27.70 20.34,-29.28 20.52,-29.16 20.69,-29.05 20.83,-28.88 20.96,-28.72 21.03,-28.52 21.10,-28.32 21.11,-28.10 21.11,-27.89 21.05,-27.69 20.99,-27.49 20.86,-27.31 20.74,-27.14 20.56,-27.02 20.39,-26.89 20.19,-26.83 19.98,-26.77 19.77,-26.78 19.56,-26.79 19.36,-26.86 19.16,-26.93 19.00,-27.07 18.83,-27.20 18.72,-27.38 18.60,-27.56 18.55,-27.77 18.50,-27.97 18.52,-28.19 18.54,-28.40 18.63,-28.59 18.71,-28.79 18.85,-28.94 19.00,-29.10 19.18,-29.21 19.37,-29.31 19.58,-29.35 19.78,-29.39 19.99,-29.36 20.20,-29.33 20.39,-29.23 20.58,-29.14 20.73,-28.99 20.88,-28.84 20.98,-28.64 21.07,-28.45 21.10,-28.24 21.13,-28.03 21.08,-27.82 21.04,-27.62 20.94,-27.43 20.83,-27.25 20.67,-27.11 20.52,-26.96 20.32,-26.88 20.12,-26.80 19.91,-26.78 19.70,-26.77 19.49,-26.82 19.29,-26.87 19.29,-26.87 19.29,-26.87 17.85,-24.91 16.40,-22.95 14.03,-19.94 11.65,-16.94 9.44,-14.05 7.22,-11.16 5.88,-8.80 4.53,-6.44 3.42,-4.60 2.31,-2.76 1.81,-1.38 1.31,0 1.29,0.15 1.27,0.31 1.21,0.46 1.16,0.61 1.07,0.74 0.98,0.87 0.86,0.97 0.74,1.08 0.60,1.15 0.46,1.22 0.31,1.26 0.15,1.30 -0.00,1.30 -0.15,1.30 -0.31,1.26 -0.46,1.22 -0.60,1.15 -0.74,1.08 -0.86,0.97 -0.98,0.87 -1.07,0.74 -1.16,0.61 -1.21,0.46 -1.27,0.31 -1.29,0.15 -1.31,-0.00 -1.31,-0.00 L -1.31,0 Z"/></g><g transform="translate(117 74) rotate(0 7 15.5)" stroke="none"><path fill="#1e1e1e" d="M 1.31,0 Q 1.31,0 1.91,2.00 2.52,4.00 3.36,6.82 4.21,9.64 5.94,13.04 7.67,16.45 9.25,19.05 10.83,21.65 12.08,23.63 13.33,25.62 14.35,26.68 15.36,27.75 15.58,27.76 15.79,27.77 15.99,27.84 16.18,27.92 16.35,28.06 16.51,28.19 16.62,28.37 16.73,28.55 16.78,28.76 16.83,28.97 16.81,29.18 16.79,29.39 16.70,29.58 16.61,29.78 16.47,29.93 16.32,30.09 16.13,30.19 15.95,30.29 15.74,30.33 15.53,30.36 15.32,30.33 15.11,30.30 14.92,30.20 14.73,30.10 14.58,29.95 14.44,29.80 14.35,29.61 14.25,29.41 14.23,29.20 14.21,28.99 14.25,28.78 14.29,28.58 14.40,28.39 14.51,28.21 14.67,28.07 14.83,27.93 15.03,27.85 15.22,27.77 15.44,27.76 15.65,27.74 15.85,27.80 16.06,27.85 16.23,27.97 16.41,28.09 16.54,28.26 16.67,28.43 16.74,28.63 16.81,28.83 16.81,29.04 16.81,29.25 16.75,29.45 16.68,29.66 16.56,29.83 16.43,30.00 16.25,30.12 16.08,30.24 15.88,30.30 15.67,30.36 15.67,30.36 15.67,30.36 12.29,29.39 8.91,28.43 7.63,26.40 6.34,24.36 4.66,21.57 2.98,18.78 1.10,14.90 -0.76,11.02 -1.64,7.53 -2.52,4.04 -1.91,2.02 -1.31,0 -1.29,-0.15 -1.27,-0.31 -1.21,-0.46 -1.16,-0.61 -1.07,-0.74 -0.98,-0.87 -0.86,-0.97 -0.74,-1.08 -0.60,-1.15 -0.46,-1.22 -0.31,-1.26 -0.15,-1.30 0.00,-1.30 0.15,-1.30 0.31,-1.26 0.46,-1.22 0.60,-1.15 0.74,-1.08 0.86,-0.97 0.98,-0.87 1.07,-0.74 1.16,-0.61 1.21,-0.46 1.27,-0.31 1.29,-0.15 1.31,0.00 1.31,0.00 L 1.31,0 Z"/></g><g transform="translate(138 94) rotate(0 3.5 -10.5)" stroke="none"><path fill="#1e1e1e" d="M -0.67,1.12 Q -0.67,1.12 -2.53,0.54 -4.38,-0.04 -5.41,-2.63 -6.43,-5.22 -6.73,-7.46 -7.04,-9.70 -6.56,-12.92 -6.09,-16.14 -5.26,-18.45 -4.43,-20.76 -3.79,-22.28 -3.15,-23.79 -2.19,-25.22 -1.22,-26.64 -0.05,-27.69 1.11,-28.74 2.83,-29.33 4.54,-29.92 6.55,-29.73 8.56,-29.54 10.06,-28.32 11.55,-27.10 12.42,-25.56 13.29,-24.02 13.69,-22.27 14.10,-20.52 13.93,-18.92 13.77,-17.32 13.02,-15.61 12.26,-13.89 10.96,-12.22 9.67,-10.55 8.87,-9.61 8.07,-8.67 6.25,-6.79 4.43,-4.91 3.40,-3.86 2.37,-2.80 1.84,-1.75 1.31,-0.69 0.92,0.40 0.53,1.50 1.01,2.50 1.49,3.51 2.94,3.81 4.39,4.11 6.96,3.25 9.53,2.38 9.73,2.30 9.92,2.21 10.13,2.19 10.34,2.17 10.55,2.22 10.76,2.27 10.94,2.38 11.12,2.49 11.25,2.66 11.39,2.82 11.47,3.02 11.54,3.22 11.55,3.43 11.56,3.64 11.50,3.85 11.44,4.05 11.32,4.22 11.20,4.40 11.03,4.52 10.85,4.65 10.65,4.72 10.45,4.78 10.24,4.78 10.02,4.77 9.82,4.70 9.62,4.63 9.46,4.50 9.29,4.37 9.17,4.19 9.06,4.02 9.00,3.81 8.95,3.61 8.96,3.39 8.98,3.18 9.06,2.98 9.14,2.79 9.28,2.63 9.42,2.47 9.60,2.36 9.79,2.25 9.99,2.21 10.20,2.17 10.41,2.20 10.62,2.22 10.82,2.31 11.01,2.41 11.16,2.55 11.31,2.70 11.41,2.89 11.51,3.08 11.54,3.29 11.57,3.50 11.53,3.71 11.49,3.92 11.39,4.10 11.29,4.29 11.13,4.44 10.98,4.58 10.98,4.58 10.98,4.58 9.30,6.19 7.62,7.80 5.68,8.47 3.75,9.14 1.99,8.78 0.22,8.41 -1.24,7.41 -2.72,6.41 -3.32,5.38 -3.92,4.35 -4.28,3.04 -4.63,1.73 -3.89,-0.72 -3.16,-3.18 -2.23,-4.75 -1.30,-6.33 -0.26,-7.39 0.78,-8.46 2.49,-10.22 4.20,-11.98 4.94,-12.84 5.68,-13.70 6.66,-14.91 7.64,-16.12 8.18,-17.12 8.71,-18.12 8.73,-19.90 8.74,-21.68 8.29,-22.65 7.83,-23.62 6.78,-24.34 5.73,-25.07 4.24,-24.44 2.75,-23.81 2.04,-22.84 1.33,-21.88 0.74,-20.47 0.15,-19.06 -0.56,-17.20 -1.27,-15.34 -1.73,-12.80 -2.19,-10.26 -1.97,-8.42 -1.75,-6.58 -1.55,-4.99 -1.36,-3.40 -0.34,-2.26 0.67,-1.12 0.80,-1.02 0.92,-0.93 1.02,-0.80 1.12,-0.68 1.18,-0.53 1.25,-0.39 1.28,-0.23 1.31,-0.08 1.30,0.07 1.29,0.23 1.24,0.38 1.19,0.53 1.11,0.67 1.03,0.80 0.92,0.91 0.81,1.03 0.67,1.11 0.54,1.19 0.39,1.24 0.24,1.29 0.08,1.30 -0.07,1.31 -0.23,1.28 -0.38,1.25 -0.53,1.19 -0.67,1.12 -0.67,1.12 L -0.67,1.12 Z"/></g><g transform="translate(161 68) rotate(0 12.5 9.5)" stroke="none"><path fill="#1e1e1e" d="M 1.31,0 Q 1.31,0 1.83,1.72 2.35,3.44 2.68,4.82 3.02,6.19 3.73,8.46 4.44,10.73 4.77,12.44 5.10,14.16 5.53,16.26 5.95,18.36 6.43,20.02 6.91,21.69 7.16,21.99 7.42,22.29 7.46,22.60 7.50,22.92 7.46,23.23 7.42,23.55 7.31,23.84 7.20,24.14 7.02,24.40 6.84,24.66 6.60,24.87 6.37,25.08 6.09,25.23 5.81,25.38 5.50,25.45 5.19,25.53 4.88,25.53 4.56,25.53 4.25,25.45 3.95,25.38 3.66,25.23 3.38,25.09 3.15,24.88 2.91,24.67 2.73,24.41 2.55,24.15 2.44,23.85 2.32,23.56 2.41,21.41 2.49,19.26 3.24,16.05 3.99,12.85 8.24,6.94 12.50,1.03 15.95,0.04 19.39,-0.93 21.87,0.28 24.36,1.49 24.55,1.58 24.75,1.66 24.91,1.80 25.07,1.94 25.18,2.12 25.28,2.31 25.33,2.51 25.37,2.72 25.34,2.93 25.31,3.14 25.22,3.34 25.13,3.53 24.98,3.68 24.83,3.83 24.64,3.93 24.45,4.02 24.24,4.05 24.03,4.09 23.83,4.05 23.62,4.01 23.43,3.91 23.24,3.81 23.10,3.65 22.96,3.49 22.87,3.30 22.78,3.10 22.76,2.89 22.75,2.68 22.79,2.47 22.84,2.27 22.96,2.09 23.07,1.91 23.23,1.77 23.40,1.64 23.59,1.56 23.79,1.49 24.01,1.48 24.22,1.47 24.42,1.53 24.63,1.59 24.80,1.71 24.97,1.83 25.10,2.00 25.23,2.18 25.29,2.38 25.35,2.58 25.35,2.79 25.35,3.01 25.28,3.21 25.21,3.41 25.07,3.57 24.94,3.74 24.77,3.86 24.59,3.97 24.38,4.03 24.18,4.08 23.96,4.07 23.75,4.05 23.75,4.05 23.75,4.05 21.97,4.26 20.19,4.47 17.95,4.52 15.71,4.58 12.00,9.24 8.29,13.89 7.87,16.61 7.45,19.32 7.44,20.80 7.42,22.29 7.46,22.60 7.50,22.92 7.46,23.23 7.42,23.55 7.31,23.84 7.20,24.14 7.02,24.40 6.84,24.66 6.60,24.87 6.37,25.08 6.09,25.23 5.81,25.38 5.50,25.45 5.19,25.53 4.88,25.53 4.56,25.53 4.25,25.45 3.95,25.38 3.66,25.23 3.38,25.09 3.15,24.88 2.91,24.67 2.73,24.41 2.55,24.15 2.44,23.85 2.32,23.56 2.09,22.88 1.86,22.19 1.34,20.79 0.82,19.38 0.41,17.24 0.01,15.11 -0.24,13.63 -0.50,12.16 -1.18,9.62 -1.87,7.08 -2.11,5.27 -2.35,3.45 -1.83,1.72 -1.31,0 -1.29,-0.15 -1.27,-0.31 -1.21,-0.46 -1.16,-0.61 -1.07,-0.74 -0.98,-0.87 -0.86,-0.97 -0.74,-1.08 -0.60,-1.15 -0.46,-1.22 -0.31,-1.26 -0.15,-1.30 0.00,-1.30 0.15,-1.30 0.31,-1.26 0.46,-1.22 0.60,-1.15 0.74,-1.08 0.86,-0.97 0.98,-0.87 1.07,-0.74 1.16,-0.61 1.21,-0.46 1.27,-0.31 1.29,-0.15 1.31,0.00 1.31,0.00 L 1.31,0 Z"/></g></svg>